<svg width="147" height="117" viewBox="0 0 147 117" fill="none" xmlns="http://www.w3.org/2000/svg">
<path d="M11.5 41.3367C7.25246 43.8428 5.31919 45.6286 2.50001 49.3435C0.430233 52.943 -0.0153733 55.6753 1.37383e-05 61.3537C0.311341 65.0304 0.842806 67.1109 2.50001 70.8618C4.1852 73.2672 5.39165 74.5897 8.00001 76.8669L77 116.401C78.6034 117.178 79.4569 117.186 81 116.401L146 78.8686C146.806 77.879 147.002 77.213 147 75.8661V62.855L79 102.389L18.5 67.3588C16.6531 66.2369 15.8214 65.6876 14.5 64.7711C13.4564 62.8265 13.0532 61.8605 13 60.3529C13.2446 58.4093 13.5909 57.4166 14.5 55.849C15.6433 54.35 16.5214 53.6944 18.5 52.8465C20.5967 52.7922 21.7032 52.9799 23.5 53.8473L79 85.8746C105.556 70.4357 119.944 61.8395 146.5 46.4006C146.489 44.2188 146.53 41.2614 146.5 40.4006C146.47 39.5399 146.377 39.0352 146 38.4006C145.715 37.8074 145.371 37.4626 144.5 36.8328L81.2664 0.400635C79.509 -0.112623 78.5238 -0.154065 76.7664 0.400635L25 30.3273C25 30.3273 27 30.8277 28.5 31.3281C30 31.8285 32 32.329 34.5 33.8303L39.5 36.8328L79 14.3136L127 42.3375L79 70.3614L30 41.8371C26.5173 40.2136 24.4295 39.6932 20.5 39.3349C16.6991 39.6016 14.7368 40.0582 11.5 41.3367Z" fill="black"/>
<path d="M24 71.0921L32.0769 66.4006L59 81.5177L50.9231 86.2091V115.401L36.9231 100.284L24 106.539V71.0921Z" fill="#F97316" stroke="white"/>
</svg>
